# xmcd CD database file
#
# Track frame offsets:
#	150
#	20140
#	42710
#	59048
#	78584
#	94131
#	120408
#	142677
#	165128
#	184142
#	198541
#	223135
#	243883
#
# Disc length: 3702 seconds
#
# Revision: 0
# Processed by: cddbd v1.5.2PL0 Copyright (c) Steve Scherf et al.
# Submitted via: CDex 1.51
#
DISCID=b70e740d
DTITLE=Los Reyes del K.O. - Hot Tin Roof
DYEAR=2006
DGENRE=Blues
TTITLE0=LOS REYES DEL KO - COOL COOL MAMA
TTITLE1=LOS REYES DEL KO - THE WAY YOU MAKE ME FEEL
TTITLE2=LOS REYES DEL KO - FUCKED UP AGAIN
TTITLE3=LOS REYES DEL KO - I CAN´T CRY
TTITLE4=LOS REYES DEL KO - EL BEAT DE MI CORAZON
TTITLE5=LOS REYES DEL KO - THE GREAT GOOGA MOOGA
TTITLE6=LOS REYES DEL KO - LA PALOMA
TTITLE7=LOS REYES DEL KO - YOUNG BOY BLUES
TTITLE8=LOS REYES DEL KO - THE HUCKLEBUCK
TTITLE9=LOS REYES DEL KO - DIVIN´DUCK
TTITLE10=LOS REYES DEL KO - THAT´S ALRIGHT
TTITLE11=LOS REYES DEL KO - HERB SMOKING
TTITLE12=LOS REYES DEL KO - I JUST CAN´T LEAVE YOU ALONE
EXTD=YEAR: 2006
EXTT0=
EXTT1=
EXTT2=
EXTT3=
EXTT4=
EXTT5=
EXTT6=
EXTT7=
EXTT8=
EXTT9=
EXTT10=
EXTT11=
EXTT12=
PLAYORDER=
